<svg width="1440" height="920" viewBox="0 0 1440 920" fill="none" xmlns="http://www.w3.org/2000/svg">
  <rect width="1440" height="920" rx="36" fill="#07101E"/>
  <rect x="28" y="28" width="1384" height="864" rx="30" fill="#0B1527" stroke="#1F324C"/>
  <rect x="28" y="28" width="1384" height="92" rx="30" fill="#0F1C31"/>
  <text x="74" y="83" fill="#F5F8FF" font-family="Arial, sans-serif" font-size="34" font-weight="700">flow.iai.one annotated walkthrough</text>
  <text x="74" y="114" fill="#8EA6C8" font-family="Arial, sans-serif" font-size="18">Builder shell, canvas graph, run control, and execution output</text>

  <rect x="56" y="148" width="252" height="716" rx="24" fill="#0E1A2D" stroke="#243A59"/>
  <text x="88" y="200" fill="#F5F8FF" font-family="Arial, sans-serif" font-size="28" font-weight="700">Node palette</text>
  <rect x="84" y="228" width="196" height="74" rx="18" fill="#162842" stroke="#2D4D74"/>
  <text x="112" y="274" fill="#F5F8FF" font-family="Arial, sans-serif" font-size="24" font-weight="700">Input</text>
  <rect x="84" y="320" width="196" height="74" rx="18" fill="#162842" stroke="#2D4D74"/>
  <text x="112" y="366" fill="#F5F8FF" font-family="Arial, sans-serif" font-size="24" font-weight="700">Logic / Transform</text>
  <rect x="84" y="412" width="196" height="74" rx="18" fill="#162842" stroke="#2D4D74"/>
  <text x="112" y="458" fill="#F5F8FF" font-family="Arial, sans-serif" font-size="24" font-weight="700">Output</text>

  <rect x="338" y="148" width="734" height="716" rx="24" fill="#091220" stroke="#243A59"/>
  <text x="370" y="200" fill="#F5F8FF" font-family="Arial, sans-serif" font-size="28" font-weight="700">Canvas</text>
  <rect x="410" y="322" width="188" height="104" rx="24" fill="#153154" stroke="#60C5FF" stroke-width="2"/>
  <text x="446" y="381" fill="#F5F8FF" font-family="Arial, sans-serif" font-size="28" font-weight="700">Input</text>
  <rect x="626" y="322" width="188" height="104" rx="24" fill="#173456" stroke="#7BD1FF" stroke-width="2"/>
  <text x="656" y="381" fill="#F5F8FF" font-family="Arial, sans-serif" font-size="28" font-weight="700">Logic</text>
  <rect x="842" y="322" width="188" height="104" rx="24" fill="#153154" stroke="#60C5FF" stroke-width="2"/>
  <text x="868" y="381" fill="#F5F8FF" font-family="Arial, sans-serif" font-size="28" font-weight="700">Output</text>
  <path d="M598 374H626" stroke="#78D3FF" stroke-width="8" stroke-linecap="round"/>
  <path d="M814 374H842" stroke="#78D3FF" stroke-width="8" stroke-linecap="round"/>
  <text x="410" y="492" fill="#8EA6C8" font-family="Arial, sans-serif" font-size="22">Connect nodes left to right to model execution order.</text>

  <rect x="1102" y="148" width="282" height="716" rx="24" fill="#0E1A2D" stroke="#243A59"/>
  <text x="1134" y="200" fill="#F5F8FF" font-family="Arial, sans-serif" font-size="28" font-weight="700">Run panel</text>
  <rect x="1134" y="232" width="218" height="68" rx="34" fill="#7DE7A3"/>
  <text x="1214" y="275" fill="#0A2214" font-family="Arial, sans-serif" font-size="24" font-weight="700">Run</text>
  <rect x="1134" y="332" width="218" height="196" rx="20" fill="#162842" stroke="#2D4D74"/>
  <text x="1162" y="374" fill="#F5F8FF" font-family="Arial, sans-serif" font-size="22" font-weight="700">Execution</text>
  <text x="1162" y="410" fill="#8EA6C8" font-family="Arial, sans-serif" font-size="20">flow_123</text>
  <text x="1162" y="446" fill="#8DF2BB" font-family="Arial, sans-serif" font-size="20">status: completed</text>
  <text x="1162" y="482" fill="#8EA6C8" font-family="Arial, sans-serif" font-size="20">3 steps stored</text>
  <rect x="1134" y="552" width="218" height="188" rx="20" fill="#162842" stroke="#2D4D74"/>
  <text x="1162" y="594" fill="#F5F8FF" font-family="Arial, sans-serif" font-size="22" font-weight="700">Result</text>
  <text x="1162" y="630" fill="#8EA6C8" font-family="Arial, sans-serif" font-size="20">message: Flow completed</text>
  <text x="1162" y="666" fill="#8EA6C8" font-family="Arial, sans-serif" font-size="20">next: mail.send</text>

  <circle cx="294" cy="250" r="28" fill="#F8D36D"/>
  <text x="285" y="260" fill="#332100" font-family="Arial, sans-serif" font-size="22" font-weight="700">1</text>
  <path d="M322 250H364" stroke="#F8D36D" stroke-width="6" stroke-linecap="round"/>
  <text x="374" y="257" fill="#F8D36D" font-family="Arial, sans-serif" font-size="22" font-weight="700">Pick a starter node from the palette.</text>

  <circle cx="566" cy="280" r="28" fill="#F8D36D"/>
  <text x="557" y="290" fill="#332100" font-family="Arial, sans-serif" font-size="22" font-weight="700">2</text>
  <path d="M566 308V322" stroke="#F8D36D" stroke-width="6" stroke-linecap="round"/>
  <text x="516" y="262" fill="#F8D36D" font-family="Arial, sans-serif" font-size="22" font-weight="700">Place the first input node.</text>

  <circle cx="820" cy="280" r="28" fill="#F8D36D"/>
  <text x="811" y="290" fill="#332100" font-family="Arial, sans-serif" font-size="22" font-weight="700">3</text>
  <path d="M820 308V322" stroke="#F8D36D" stroke-width="6" stroke-linecap="round"/>
  <text x="740" y="262" fill="#F8D36D" font-family="Arial, sans-serif" font-size="22" font-weight="700">Chain logic and output nodes.</text>

  <circle cx="1088" cy="264" r="28" fill="#F8D36D"/>
  <text x="1079" y="274" fill="#332100" font-family="Arial, sans-serif" font-size="22" font-weight="700">4</text>
  <path d="M1116 264H1134" stroke="#F8D36D" stroke-width="6" stroke-linecap="round"/>
  <text x="1124" y="124" fill="#F8D36D" font-family="Arial, sans-serif" font-size="22" font-weight="700">Run once and inspect the execution panel.</text>
</svg>
